<svg xmlns="http://www.w3.org/2000/svg" viewBox="0 0 800 800">
  <defs>
    <style>
      .a {
        fill: #5b9cd1;
      }

      .b {
        fill: #c76a68;
      }

      .c {
        fill: #deb871;
      }

      .d {
        fill: #384557;
      }
    </style>
  </defs>
  <title>1-step-disput</title>
  <g>
    <path class="a" d="M403.62544,411.1164a8.7574,8.7574,0,0,1-3.06318-.16642.87276.87276,0,0,0-.72869.13044.9012.9012,0,0,0-.38683.63423,10.61868,10.61868,0,0,1-1.35392,4.06625v13.971a3.59377,3.59377,0,0,0,6.62565,1.93416,3.50826,3.50826,0,0,0,.56226-1.70926,1.79727,1.79727,0,0,1-.89062-2.72133,1.82776,1.82776,0,0,1,.89961-.67921v-1.89818h-.18437a1.79923,1.79923,0,1,1,0-3.59845h.18437v-1.79923a1.79521,1.79521,0,0,1-.89961-3.35106,1.75348,1.75348,0,0,1,.89961-.24739v-5.04233a4.78778,4.78778,0,0,1-.89961.32386A6.76434,6.76434,0,0,1,403.62544,411.1164Z"/>
    <path class="a" d="M398.09282,400.58644v5.906c.30133.054.60279.10346.89961.14394a25.20545,25.20545,0,0,0,4.8804.2339c.17543-.009.35085-.018.51728-.03148.31936-.018.61624-.045.89961-.072v-6.18034A16.46326,16.46326,0,0,1,398.09282,400.58644Z"/>
    <path class="b" d="M408.20447,387.94687a7.17826,7.17826,0,0,0-2.05116-.89961,7.414,7.414,0,0,1-4.34509,1.54733h-.16193a7.28564,7.28564,0,0,1-4.48012-1.56532h-.009a7.007,7.007,0,0,0-2.10505.9176,7.77325,7.77325,0,0,0-3.34562,5.83975l-.00094.00774a13.47561,13.47561,0,0,0,19.85441.108A7.82733,7.82733,0,0,0,408.20447,387.94687Z"/>
    <polygon class="c" points="391.706 393.785 391.706 393.794 391.707 393.787 391.706 393.785"/>
    <g>
      <circle class="d" cx="385.49824" cy="369.42384" r="1.01206"/>
      <circle class="d" cx="417.1347" cy="400.01068" r="1.01206"/>
      <path class="d" d="M415.109,398.135a18.99161,18.99161,0,1,0-17.91583,5.01084v1.33143c-.22491-.04948-.45431-.10345-.67921-.16193a.97932.97932,0,0,0-.39583-.01349,34.67909,34.67909,0,0,0-5.31221,1.50235,20.35034,20.35034,0,0,0-5.31222,2.58639.90515.90515,0,0,0-.89511-.80516h-8.33042a.89962.89962,0,0,0,0,1.79923h7.4308v21.59071h-1.9836a.89962.89962,0,0,0,0,1.79923h2.88322a.89937.89937,0,0,0,.89961-.89962v-.50378c.08092.036.16643.07647.25194.11245.61164.27438,1.25046.55776,1.96106.83214a17.89779,17.89779,0,0,0,3.89542,1.03006c.86808.12145,3.76483.26089,4.82188.26089h1.363c.49469,0,.985-.02249,1.47981-.063a4.4979,4.4979,0,0,0,6.3873-1.67328c.06743.00449.1394.00449.21136.00449h2.62238a3.59272,3.59272,0,0,0,3.04968-5.50113,3.595,3.595,0,0,0,1.61031-6.11287,3.59064,3.59064,0,0,0,0-5.55961,3.59583,3.59583,0,0,0-2.46494-6.21632h-1.273a2.956,2.956,0,0,0-.13939-2.82029c-.66122-.89511-1.73176-.91311-3.08567-.79616v-1.72276A18.84551,18.84551,0,0,0,415.109,398.135Zm-10.71893,6.9q-.2968.027-.60724.04048a23.6688,23.6688,0,0,1-4.79044-.26088v-1.32243a18.92649,18.92649,0,0,0,5.39768,0Zm-.80065,7.8986a3.59641,3.59641,0,0,0,.51278,1.15151,3.59444,3.59444,0,0,0-1.27746,6.01391,3.59058,3.59058,0,0,0,.34186,5.807,3.58987,3.58987,0,0,0,.74213,5.38419,2.69378,2.69378,0,0,1-2.2175,1.1605,2.71046,2.71046,0,0,1-2.69884-2.69884V417.70157c.10346-.14394.20242-.28787.30133-.44081a12.42356,12.42356,0,0,0,1.79027-4.38111A10.41409,10.41409,0,0,0,403.58946,412.93362Zm4.90289,17.14213H405.87a1.82,1.82,0,0,1-.58924-.099,1.79727,1.79727,0,0,1-.89062-2.72133,1.82776,1.82776,0,0,1,.89961-.67921,1.78626,1.78626,0,0,1,.58025-.099h2.62238a1.79923,1.79923,0,0,1,0,3.59845Zm2.19505-5.39768h-5.58205a1.79923,1.79923,0,1,1,0-3.59845h5.58205a1.79923,1.79923,0,1,1,0,3.59845Zm.18438-8.99613a1.79923,1.79923,0,0,1,0,3.59845h-5.58206a1.79521,1.79521,0,0,1-.89961-3.35106,1.75348,1.75348,0,0,1,.89961-.24739h5.58206Zm-.18438-5.39768a1.79923,1.79923,0,1,1,0,3.59845H407.089a1.80593,1.80593,0,0,1-1.73625-1.32692,6.35511,6.35511,0,0,0,.83664-.35085,5.91648,5.91648,0,0,0,1.52934-1.093,7.00941,7.00941,0,0,0,.71069-.82765Zm-2.86077-3.55347c.17993.2429.036.97158-.37329,1.75425a5.49778,5.49778,0,0,1-.99412,1.34492,2.69841,2.69841,0,0,1-.26988.2384,4.2681,4.2681,0,0,1-.89962.57125,4.78778,4.78778,0,0,1-.89961.32386,6.76434,6.76434,0,0,1-.76467.15293,8.7574,8.7574,0,0,1-3.06318-.16642.87276.87276,0,0,0-.72869.13044.9012.9012,0,0,0-.38683.63423,10.61868,10.61868,0,0,1-1.35392,4.06625c-.09446.16643-.19337.33285-.30132.49479-.19347.29237-.39138.56225-.59829.81864a10.53934,10.53934,0,0,1-3.342,2.73932.89911.89911,0,0,0-.37788,1.21448.88613.88613,0,0,0,.79616.48129.93525.93525,0,0,0,.41827-.099,12.56969,12.56969,0,0,0,2.50547-1.73626v10.05768a4.44882,4.44882,0,0,0,.49928,2.05561h-1.264c-1.05705,0-3.84135-.13944-4.56109-.24289a16.18855,16.18855,0,0,1-3.51294-.9311c-.66571-.25639-1.27745-.53077-1.87124-.79616q-.49246-.22266-.985-.43181v-18.658c.07192-.07646.153-.14843.2294-.2204,1.60585-1.46637,3.21607-2.10959,5.708-3.0362a32.5299,32.5299,0,0,1,4.83542-1.3809c.30587.07647.61628.14394.92211.20691.30132.063.60278.12595.89961.17542.30133.054.60279.10346.89961.14394a25.20545,25.20545,0,0,0,4.8804.2339c.17543-.009.35085-.018.51728-.03148.31936-.018.61624-.045.89961-.072.16643-.0135.32836-.03149.48134-.045q.20235-.02025.41828-.04049C406.936,406.60934,407.70069,406.56436,407.82663,406.73079Zm-2.53691-6.14435c-.29682.06747-.59828.12594-.89961.17542a16.46806,16.46806,0,0,1-5.39768,0c-.30132-.04948-.60278-.108-.89961-.17542-.30132-.06748-.60279-.14394-.89961-.2339a16.11862,16.11862,0,0,1-7.01253-4.12473,16.2784,16.2784,0,1,1,23.02118,0,16.11859,16.11859,0,0,1-7.01252,4.12473C405.89251,400.4425,405.59105,400.519,405.28972,400.58644Z"/>
      <path class="d" d="M382.1291,428.036a1.55914,1.55914,0,1,0-1.9196,1.08488A1.55915,1.55915,0,0,0,382.1291,428.036Z"/>
      <path class="d" d="M384.34736,399.20989a.89969.89969,0,0,0,.70526-1.45746,21.13843,21.13843,0,0,1-.65519-25.20014.8997.8997,0,0,0-1.46889-1.03932,22.93863,22.93863,0,0,0,.71227,27.3552A.8989.8989,0,0,0,384.34736,399.20989Z"/>
      <path class="d" d="M420.34178,371.35441a.89962.89962,0,1,0-1.46057,1.0507,21.15053,21.15053,0,0,1-.32723,25.06354.89946.89946,0,1,0,1.43155,1.08938,22.949,22.949,0,0,0,.35625-27.20362Z"/>
      <path class="d" d="M412.22021,394.51328a.89985.89985,0,0,0,.235-.70062,8.75489,8.75489,0,0,0-3.76079-6.62056,8.042,8.042,0,0,0-2.28326-1.00725.90932.90932,0,0,0-.25787-.03734h-.00459a.89366.89366,0,0,0-.52933.1757,6.54634,6.54634,0,0,1-3.81126,1.37182l-.18361.00045a6.42538,6.42538,0,0,1-3.92375-1.38982.91874.91874,0,0,0-.43726-.17.88015.88015,0,0,0-.1026-.00616h-.00747a.91276.91276,0,0,0-.24159.03382,7.81555,7.81555,0,0,0-2.343,1.02484,8.71332,8.71332,0,0,0-3.7557,6.49143.90681.90681,0,0,0-.00724.10368v.00085c-.00023.01669.00022.03338.0009.05011v.00085a.89287.89287,0,0,0,.0483.253l.00023.0009a.89662.89662,0,0,0,.16868.29255h.00022l.00108.00131.01624.01844a14.37513,14.37513,0,0,0,21.17869.112Zm-4.23165,1.09924v-3.21207a.89961.89961,0,0,0-1.79922,0V396.472a12.48116,12.48116,0,0,1-8.99613.00225v-4.07381a.89962.89962,0,0,0-1.79923,0v3.21585a12.61406,12.61406,0,0,1-2.7408-2.12736,6.68248,6.68248,0,0,1,2.89585-4.79237,5.821,5.821,0,0,1,1.44982-.68438,8.00382,8.00382,0,0,0,4.6474,1.48206h.16188a8.16888,8.16888,0,0,0,4.50333-1.461,6.0982,6.0982,0,0,1,1.4074.67075,6.712,6.712,0,0,1,2.89716,4.88373A12.49955,12.49955,0,0,1,407.98856,395.61252Z"/>
      <path class="d" d="M394.66984,380.271a3.64025,3.64025,0,0,0,.85679,1.45575,7.25894,7.25894,0,0,0,2.2126,3.4636,5.87713,5.87713,0,0,0,3.9551,1.60459c.03846.00135.07665.00176.11511.00176a5.96855,5.96855,0,0,0,3.80338-1.61206,7.24533,7.24533,0,0,0,2.20554-3.45789,3.60208,3.60208,0,0,0,.85148-1.43862c.06581-.202.57917-1.89912-.36349-2.77814a5.96361,5.96361,0,0,0-.0775-3.003,5.7475,5.7475,0,0,0-1.821-2.78934,7.16732,7.16732,0,0,0-4.55712-1.39377l-.08434-.00045-.08038.00045-.10611-.00045-.07993.00045a7.17247,7.17247,0,0,0-4.56176,1.39377,5.747,5.747,0,0,0-1.82072,2.78934,6.07533,6.07533,0,0,0-.082,3.01136C394.10187,378.41318,394.60965,380.08749,394.66984,380.271Zm12.28358-.52182a1.82041,1.82041,0,0,1-.53261.8271.90028.90028,0,0,0-.27848.45772,5.45189,5.45189,0,0,1-1.70368,2.78714,4.2776,4.2776,0,0,1-2.69511,1.17548c-.01669-.0009-.11947-.0009-.13571,0a4.26039,4.26039,0,0,1-2.70369-1.17724,5.45378,5.45378,0,0,1-1.70149-2.78583.90207.90207,0,0,0-.27847-.45727,1.842,1.842,0,0,1-.53811-.84555,2.17743,2.17743,0,0,1-.096-.8939c.01156-.00252.02186-.00769.03328-.01057a.8822.8822,0,0,0,.46848-.29907.87763.87763,0,0,0,.07026-.0964.893.893,0,0,0,.08159-.17c.00486-.01381.01444-.02478.01867-.03895.29125-.97649.69535-1.60554,1.13792-1.77112.30816-.1151.6165-.0246,1.2295.17394a7.68686,7.68686,0,0,0,2.05247.43618c.098.00526.19679.00131.291.00877.09594.00135.19261-.00351.29143-.00877a7.68725,7.68725,0,0,0,2.05179-.43618c.61277-.19854.92094-.289,1.2295-.17394.43685.16342.83835.79243,1.13023,1.77112a.89183.89183,0,0,0,.65308.60715c.00881.00234.01668.00656.02559.00868A2.22029,2.22029,0,0,1,406.95342,379.7492Zm-10.10967-4.7353a3.92821,3.92821,0,0,1,1.23589-1.90551,5.43878,5.43878,0,0,1,3.43877-.98526l.06149-.00045.10633.00045.08016-.00045.0659.00045a5.433,5.433,0,0,1,3.43413.98526,3.92826,3.92826,0,0,1,1.23612,1.90551c.011.03734.02132.07472.03094.1116a2.66733,2.66733,0,0,0-.65622-.35976,3.41312,3.41312,0,0,0-2.41618.14759,5.982,5.982,0,0,1-1.59366.351,3.57438,3.57438,0,0,1-.38787,0,5.98057,5.98057,0,0,1-1.5943-.351,4.84643,4.84643,0,0,0-1.50293-.31451,2.572,2.572,0,0,0-.91325.16692,2.67324,2.67324,0,0,0-.65581.358C396.82293,375.08727,396.833,375.05083,396.84375,375.0139Z"/>
    </g>
  </g>
</svg>
